<mxfile host="app.diagrams.net" modified="2023-05-05T17:53:47.636Z" agent="Mozilla/5.0 (X11; Linux x86_64; rv:109.0) Gecko/20100101 Firefox/111.0" version="21.2.7" etag="QQqbNrTBHlI2_pbM8Rvr" type="github">
  <diagram name="Page-1" id="W2pN9JWfRlblO0_100j0">
    <mxGraphModel>
      <root>
        <mxCell id="0" />
        <mxCell id="1" parent="0" />
      </root>
    </mxGraphModel>
  </diagram>
</mxfile>
